PathFileType	4	(X/Y/Z)	C:\Users\italobelli\Desktop\GitHub\PTbot_officialCBL\Personal_Results\SHRUG01_noisy2.trc
DataRate	CameraRate	NumFrames	NumMarkers	Units	OrigDataRate	OrigDataStartFrame	OrigNumFrames
110.888889	110.888889	21	9	m	110.888889	188	500
Frame#	Time		gu		centelbow		EpL		centpxt8		centijc7		ij		ts		aa		ai
			X1	Y1	Z1	X2	Y2	Z2	X3	Y3	Z3	X4	Y4	Z4	X5	Y5	Z5	X6	Y6	Z6	X7	Y7	Z7	X8	Y8	Z8	X9	Y9	Z9

188	1.6864	-0.065065	0.051471	0.16103	-0.062096	-0.1836	0.22535	-0.040083	-0.17314	0.24645	-0.046816	-0.15316	-0.008669	-0.046816	0.031938	-0.008669	0	0	0	-0.13027	0.057394	0.04759	-0.090255	0.090713	0.15481	-0.14998	-0.045252	0.091373
189	1.6954	-0.065223	0.051197	0.16117	-0.062584	-0.18397	0.22491	-0.040584	-0.17357	0.24606	-0.046816	-0.15316	-0.008669	-0.046816	0.031938	-0.008669	0	0	0	-0.13034	0.057398	0.047501	-0.090393	0.090478	0.15481	-0.15019	-0.04531	0.091037
190	1.7044	-0.065385	0.050904	0.16132	-0.063081	-0.18437	0.22447	-0.041095	-0.17402	0.24566	-0.046816	-0.15316	-0.008669	-0.046816	0.031938	-0.008669	0	0	0	-0.13041	0.057394	0.047413	-0.090535	0.090223	0.15481	-0.15041	-0.045379	0.090694
191	1.7134	-0.06555	0.050593	0.16147	-0.063589	-0.18479	0.22402	-0.041616	-0.1745	0.24525	-0.046816	-0.15316	-0.008669	-0.046816	0.031938	-0.008669	0	0	0	-0.13048	0.057384	0.047327	-0.090682	0.08995	0.15482	-0.15064	-0.045458	0.090345
192	1.7224	-0.065719	0.050263	0.16162	-0.064106	-0.18523	0.22356	-0.042146	-0.175	0.24484	-0.046816	-0.15316	-0.008669	-0.046816	0.031938	-0.008669	0	0	0	-0.13056	0.057366	0.047243	-0.090832	0.089659	0.15484	-0.15086	-0.045546	0.08999
193	1.7315	-0.06589	0.049916	0.16177	-0.06463	-0.18569	0.22309	-0.042684	-0.17552	0.24442	-0.046816	-0.15316	-0.008669	-0.046816	0.031938	-0.008669	0	0	0	-0.13064	0.057342	0.047161	-0.090986	0.08935	0.15485	-0.15109	-0.045644	0.08963
194	1.7405	-0.066063	0.049552	0.16193	-0.065162	-0.18617	0.22262	-0.043229	-0.17606	0.24399	-0.046816	-0.15316	-0.008669	-0.046816	0.031938	-0.008669	0	0	0	-0.13072	0.05731	0.047081	-0.091143	0.089024	0.15488	-0.15133	-0.045752	0.089265
195	1.7495	-0.06624	0.049172	0.16209	-0.065701	-0.18667	0.22214	-0.04378	-0.17662	0.24355	-0.046816	-0.15316	-0.008669	-0.046816	0.031938	-0.008669	0	0	0	-0.1308	0.057272	0.047003	-0.091304	0.088682	0.15491	-0.15156	-0.045868	0.088896
196	1.7585	-0.066418	0.048776	0.16224	-0.066245	-0.18719	0.22166	-0.044336	-0.1772	0.24312	-0.046816	-0.15316	-0.008669	-0.046816	0.031938	-0.008669	0	0	0	-0.13089	0.057228	0.046927	-0.091468	0.088323	0.15494	-0.1518	-0.045994	0.088523
197	1.7675	-0.066598	0.048364	0.1624	-0.066794	-0.18772	0.22117	-0.044897	-0.1778	0.24268	-0.046816	-0.15316	-0.008669	-0.046816	0.031938	-0.008669	0	0	0	-0.13097	0.057177	0.046853	-0.091634	0.087949	0.15498	-0.15204	-0.046128	0.088148
198	1.7766	-0.066781	0.047938	0.16256	-0.067347	-0.18828	0.22069	-0.045461	-0.17842	0.24223	-0.046816	-0.15316	-0.008669	-0.046816	0.031938	-0.008669	0	0	0	-0.13106	0.057119	0.046782	-0.091803	0.08756	0.15502	-0.15228	-0.046272	0.08777
199	1.7856	-0.066964	0.047497	0.16272	-0.067903	-0.18884	0.2202	-0.046027	-0.17906	0.24178	-0.046816	-0.15316	-0.008669	-0.046816	0.031938	-0.008669	0	0	0	-0.13115	0.057055	0.046714	-0.091974	0.087156	0.15506	-0.15252	-0.046423	0.087391
200	1.7946	-0.067149	0.047042	0.16288	-0.068461	-0.18943	0.21971	-0.046596	-0.17971	0.24134	-0.046816	-0.15316	-0.008669	-0.046816	0.031938	-0.008669	0	0	0	-0.13125	0.056984	0.046648	-0.092148	0.086738	0.15512	-0.15276	-0.046583	0.08701
201	1.8036	-0.067335	0.046575	0.16304	-0.069021	-0.19003	0.21922	-0.047164	-0.18037	0.24089	-0.046816	-0.15316	-0.008669	-0.046816	0.031938	-0.008669	0	0	0	-0.13134	0.056907	0.046585	-0.092323	0.086307	0.15517	-0.153	-0.046751	0.086629
202	1.8126	-0.067523	0.046094	0.1632	-0.069581	-0.19064	0.21873	-0.047733	-0.18105	0.24044	-0.046816	-0.15316	-0.008669	-0.046816	0.031938	-0.008669	0	0	0	-0.13144	0.056824	0.046524	-0.092501	0.085862	0.15523	-0.15325	-0.046927	0.086248
203	1.8216	-0.06771	0.045601	0.16335	-0.070141	-0.19127	0.21824	-0.0483	-0.18175	0.23999	-0.046816	-0.15316	-0.008669	-0.046816	0.031938	-0.008669	0	0	0	-0.13153	0.056735	0.046467	-0.092679	0.085405	0.1553	-0.15349	-0.04711	0.085867
204	1.8307	-0.067898	0.045097	0.16351	-0.0707	-0.19191	0.21776	-0.048865	-0.18246	0.23955	-0.046816	-0.15316	-0.008669	-0.046816	0.031938	-0.008669	0	0	0	-0.13163	0.05664	0.046412	-0.09286	0.084936	0.15537	-0.15373	-0.047301	0.085487
205	1.8397	-0.068087	0.044582	0.16366	-0.071258	-0.19256	0.21728	-0.049428	-0.18318	0.2391	-0.046816	-0.15316	-0.008669	-0.046816	0.031938	-0.008669	0	0	0	-0.13173	0.056539	0.046361	-0.093041	0.084456	0.15544	-0.15396	-0.0475	0.085109
206	1.8487	-0.068275	0.044056	0.16381	-0.071812	-0.19322	0.2168	-0.049986	-0.18391	0.23866	-0.046816	-0.15316	-0.008669	-0.046816	0.031938	-0.008669	0	0	0	-0.13183	0.056432	0.046312	-0.093223	0.083964	0.15552	-0.1542	-0.047705	0.084734
207	1.8577	-0.068464	0.04352	0.16396	-0.072363	-0.1939	0.21633	-0.05054	-0.18465	0.23822	-0.046816	-0.15316	-0.008669	-0.046816	0.031938	-0.008669	0	0	0	-0.13193	0.056319	0.046267	-0.093406	0.083461	0.1556	-0.15443	-0.047917	0.084361
208	1.8667	-0.068651	0.042974	0.16411	-0.07291	-0.19458	0.21587	-0.051088	-0.1854	0.23779	-0.046816	-0.15316	-0.008669	-0.046816	0.031938	-0.008669	0	0	0	-0.13203	0.0562	0.046225	-0.093589	0.082949	0.15569	-0.15466	-0.048137	0.083992
